<svg xmlns="http://www.w3.org/2000/svg" width="1600" height="900" viewBox="0 0 1600 900" role="img" aria-label="Parfumeria.by">
  <title>Parfumeria.by</title>
  <rect width="1600" height="900" fill="#0e1014"/>
  <g stroke="#161a20" stroke-width="1"><path d="M80 0V900" /><path d="M160 0V900" /><path d="M240 0V900" /><path d="M320 0V900" /><path d="M400 0V900" /><path d="M480 0V900" /><path d="M560 0V900" /><path d="M640 0V900" /><path d="M720 0V900" /><path d="M800 0V900" /><path d="M880 0V900" /><path d="M960 0V900" /><path d="M1040 0V900" /><path d="M1120 0V900" /><path d="M1200 0V900" /><path d="M1280 0V900" /><path d="M1360 0V900" /><path d="M1440 0V900" /><path d="M1520 0V900" /><path d="M0 80H1600" /><path d="M0 160H1600" /><path d="M0 240H1600" /><path d="M0 320H1600" /><path d="M0 400H1600" /><path d="M0 480H1600" /><path d="M0 560H1600" /><path d="M0 640H1600" /><path d="M0 720H1600" /><path d="M0 800H1600" /><path d="M0 880H1600" /></g>
  <rect x="0.5" y="0.5" width="1599" height="899" fill="none" stroke="#2a2f38"/>
  <defs><marker id="arr" viewBox="0 0 10 10" refX="9" refY="5" markerWidth="8" markerHeight="8" orient="auto"><path d="M0 1L9 5L0 9" fill="none" stroke="#8b919b" stroke-width="1.5"/></marker></defs>
  <rect x="96" y="104" width="14" height="14" fill="#c2a878"/>
  <text x="126" y="117" font-family="'JetBrains Mono', SFMono-Regular, Menlo, Consolas, 'Liberation Mono', monospace" font-size="19" font-weight="400" letter-spacing="3" fill="#8b919b" text-anchor="start">LEXANDRO / 01 / ДИЗАЙН · ФРОНТЕНД</text>
  <text x="96" y="350" font-family="Inter, 'Segoe UI', 'Helvetica Neue', Helvetica, Arial, sans-serif" font-size="92" font-weight="600" letter-spacing="-1" fill="#ece9e3" text-anchor="start">Parfumeria.by</text>
  <text x="96" y="420" font-family="Inter, 'Segoe UI', 'Helvetica Neue', Helvetica, Arial, sans-serif" font-size="30" font-weight="400" letter-spacing="0" fill="#8b919b" text-anchor="start">Интернет-магазин парфюмерии: дизайн-система,</text>
  <text x="96" y="464" font-family="Inter, 'Segoe UI', 'Helvetica Neue', Helvetica, Arial, sans-serif" font-size="30" font-weight="400" letter-spacing="0" fill="#8b919b" text-anchor="start">450+ экранов и перенос сайта на Next.js</text>
  <rect x="96" y="700" width="92.0" height="44" rx="6" fill="#151920" stroke="#2a2f38" stroke-width="1.5"/>
  <text x="142.0" y="728.3" font-family="'JetBrains Mono', SFMono-Regular, Menlo, Consolas, 'Liberation Mono', monospace" font-size="18" font-weight="400" letter-spacing="0" fill="#c3c6cc" text-anchor="middle">Figma</text>
  <rect x="200.0" y="700" width="114.39999999999999" height="44" rx="6" fill="#151920" stroke="#2a2f38" stroke-width="1.5"/>
  <text x="257.2" y="728.3" font-family="'JetBrains Mono', SFMono-Regular, Menlo, Consolas, 'Liberation Mono', monospace" font-size="18" font-weight="400" letter-spacing="0" fill="#c3c6cc" text-anchor="middle">Next.js</text>
  <rect x="326.4" y="700" width="148.0" height="44" rx="6" fill="#151920" stroke="#2a2f38" stroke-width="1.5"/>
  <text x="400.4" y="728.3" font-family="'JetBrains Mono', SFMono-Regular, Menlo, Consolas, 'Liberation Mono', monospace" font-size="18" font-weight="400" letter-spacing="0" fill="#c3c6cc" text-anchor="middle">TypeScript</text>
  <rect x="486.4" y="700" width="159.2" height="44" rx="6" fill="#151920" stroke="#2a2f38" stroke-width="1.5"/>
  <text x="566.0" y="728.3" font-family="'JetBrains Mono', SFMono-Regular, Menlo, Consolas, 'Liberation Mono', monospace" font-size="18" font-weight="400" letter-spacing="0" fill="#c3c6cc" text-anchor="middle">CSS Modules</text>
  <rect x="657.5999999999999" y="700" width="114.39999999999999" height="44" rx="6" fill="#151920" stroke="#2a2f38" stroke-width="1.5"/>
  <text x="714.8" y="728.3" font-family="'JetBrains Mono', SFMono-Regular, Menlo, Consolas, 'Liberation Mono', monospace" font-size="18" font-weight="400" letter-spacing="0" fill="#c3c6cc" text-anchor="middle">Битрикс</text>
  <rect x="900" y="150" width="40" height="40" rx="6" fill="#ece9e3" stroke="#2a2f38"/>
  <rect x="956" y="150" width="40" height="40" rx="6" fill="#8b919b" stroke="#2a2f38"/>
  <rect x="1012" y="150" width="40" height="40" rx="6" fill="#c2a878" stroke="#2a2f38"/>
  <rect x="1068" y="150" width="40" height="40" rx="6" fill="#7d8fa3" stroke="#2a2f38"/>
  <rect x="1124" y="150" width="40" height="40" rx="6" fill="#e3d6bf" stroke="#2a2f38"/>
  <rect x="1180" y="150" width="40" height="40" rx="6" fill="#1c2129" stroke="#2a2f38"/>
  <text x="1504" y="190" font-family="Inter, 'Segoe UI', 'Helvetica Neue', Helvetica, Arial, sans-serif" font-size="56" font-weight="600" letter-spacing="0" fill="#ece9e3" text-anchor="end">Aa</text>
  <text x="1400" y="190" font-family="Inter, 'Segoe UI', 'Helvetica Neue', Helvetica, Arial, sans-serif" font-size="40" font-weight="400" letter-spacing="0" fill="#8b919b" text-anchor="end">Aa</text>
  <rect x="900" y="240" width="480" height="340" rx="10" fill="#151920" stroke="#2a2f38" stroke-width="1.5"/>
  <path d="M900 284H1380" stroke="#2a2f38"/>
  <rect x="920" y="256" width="70" height="12" rx="3" fill="#c3c6cc"/>
  <rect x="1080" y="250" width="200" height="26" rx="5" fill="#0e1014" stroke="#2a2f38" stroke-width="1.5"/>
  <text x="1092" y="268" font-family="'JetBrains Mono', SFMono-Regular, Menlo, Consolas, 'Liberation Mono', monospace" font-size="13" font-weight="400" letter-spacing="0" fill="#8b919b" text-anchor="start">шанель → chanel</text>
  <rect x="1300" y="254" width="60" height="18" rx="4" fill="#c2a878"/>
  <rect x="920" y="304" width="440" height="84" rx="6" fill="#1c2129"/>
  <rect x="940" y="328" width="160" height="14" rx="3" fill="#c3c6cc"/><rect x="940" y="352" width="110" height="10" rx="3" fill="#5b616b"/>
  <rect x="920.0" y="406" width="99.5" height="96" rx="5" fill="#1c2129"/>
  <rect x="920.0" y="512" width="79.6" height="9" rx="3" fill="#c3c6cc"/><rect x="920.0" y="528" width="49.8" height="9" rx="3" fill="#5b616b"/>
  <rect x="920.0" y="546" width="99.5" height="20" rx="4" fill="none" stroke="#2a2f38" stroke-width="1.5"/>
  <rect x="1033.5" y="406" width="99.5" height="96" rx="5" fill="#1c2129"/>
  <rect x="1033.5" y="512" width="79.6" height="9" rx="3" fill="#c3c6cc"/><rect x="1033.5" y="528" width="49.8" height="9" rx="3" fill="#5b616b"/>
  <rect x="1033.5" y="546" width="99.5" height="20" rx="4" fill="none" stroke="#c2a878" stroke-width="1.5"/>
  <rect x="1147.0" y="406" width="99.5" height="96" rx="5" fill="#1c2129"/>
  <rect x="1147.0" y="512" width="79.6" height="9" rx="3" fill="#c3c6cc"/><rect x="1147.0" y="528" width="49.8" height="9" rx="3" fill="#5b616b"/>
  <rect x="1147.0" y="546" width="99.5" height="20" rx="4" fill="none" stroke="#2a2f38" stroke-width="1.5"/>
  <rect x="1260.5" y="406" width="99.5" height="96" rx="5" fill="#1c2129"/>
  <rect x="1260.5" y="512" width="79.6" height="9" rx="3" fill="#c3c6cc"/><rect x="1260.5" y="528" width="49.8" height="9" rx="3" fill="#5b616b"/>
  <rect x="1260.5" y="546" width="99.5" height="20" rx="4" fill="none" stroke="#2a2f38" stroke-width="1.5"/>
  <rect x="1236" y="410" width="200" height="290" rx="12" fill="#151920" stroke="#2a2f38" stroke-width="1.5"/>
  <rect x="1252" y="428" width="50" height="10" rx="3" fill="#c3c6cc"/>
  <path d="M1236 454H1436" stroke="#2a2f38"/>
  <rect x="1252" y="470" width="78" height="66" rx="4" fill="#1c2129"/><rect x="1252" y="544" width="60" height="8" rx="3" fill="#c3c6cc"/><rect x="1252" y="558" width="40" height="8" rx="3" fill="#5b616b"/>
  <rect x="1342" y="470" width="78" height="66" rx="4" fill="#1c2129"/><rect x="1342" y="544" width="60" height="8" rx="3" fill="#c3c6cc"/><rect x="1342" y="558" width="40" height="8" rx="3" fill="#5b616b"/>
  <rect x="1252" y="580" width="78" height="66" rx="4" fill="#1c2129"/><rect x="1252" y="654" width="60" height="8" rx="3" fill="#c3c6cc"/><rect x="1252" y="668" width="40" height="8" rx="3" fill="#5b616b"/>
  <rect x="1342" y="580" width="78" height="66" rx="4" fill="#1c2129"/><rect x="1342" y="654" width="60" height="8" rx="3" fill="#c3c6cc"/><rect x="1342" y="668" width="40" height="8" rx="3" fill="#5b616b"/>
  <rect x="1396" y="500" width="108" height="230" rx="14" fill="#151920" stroke="#2a2f38" stroke-width="1.5"/>
  <rect x="1408" y="516" width="36" height="8" rx="3" fill="#c3c6cc"/>
  <path d="M1396 536H1504" stroke="#2a2f38"/>
  <rect x="1408" y="548" width="84" height="52" rx="4" fill="#1c2129"/><rect x="1408" y="608" width="56" height="7" rx="3" fill="#c3c6cc"/>
  <rect x="1408" y="632" width="84" height="52" rx="4" fill="#1c2129"/><rect x="1408" y="692" width="56" height="7" rx="3" fill="#c3c6cc"/>
  <rect x="1408" y="700" width="84" height="18" rx="4" fill="#c2a878"/>
  <text x="900" y="640" font-family="'JetBrains Mono', SFMono-Regular, Menlo, Consolas, 'Liberation Mono', monospace" font-size="15" font-weight="400" letter-spacing="0" fill="#5b616b" text-anchor="start">1440</text>
  <text x="1236" y="730" font-family="'JetBrains Mono', SFMono-Regular, Menlo, Consolas, 'Liberation Mono', monospace" font-size="15" font-weight="400" letter-spacing="0" fill="#5b616b" text-anchor="start">768</text>
  <text x="1396" y="760" font-family="'JetBrains Mono', SFMono-Regular, Menlo, Consolas, 'Liberation Mono', monospace" font-size="15" font-weight="400" letter-spacing="0" fill="#5b616b" text-anchor="start">375</text>

</svg>
